<svg width="33" height="33" viewBox="0 0 33 33" fill="none" xmlns="http://www.w3.org/2000/svg">
<g clip-path="url(#clip0_451_841)">
<path d="M31.5007 28.5H10.5075C9.681 28.5 9.0075 27.828 9.0075 27.0007V25.5015C9.0075 25.227 9.15825 24.975 9.399 24.843L16.7385 20.8403C14.28 18.1815 14.253 14.4202 14.253 14.2462L14.2575 9.7515C14.2575 9.7095 14.2613 9.66825 14.268 9.62775C14.7848 6.56325 18.168 4.50525 21.0037 4.50525H21.0068C23.841 4.50525 27.2235 6.56175 27.7417 9.6255C27.7485 9.66675 27.7522 9.70875 27.7522 9.75L27.7545 14.2455C27.7545 14.4188 27.7275 18.18 25.2698 20.8387L32.6093 24.8415C32.85 24.9735 33 25.2255 33 25.5V27.0007C33 27.828 32.3272 28.5 31.5007 28.5ZM23.6445 21.66C23.4247 21.54 23.2792 21.3188 23.256 21.0698C23.2335 20.8208 23.337 20.577 23.5305 20.4195C26.2283 18.2325 26.2552 14.286 26.2552 14.2462L26.2522 9.81675C25.8307 7.56675 23.1622 6.00375 21.0037 6.00375C18.8445 6.0045 16.1775 7.56825 15.7575 9.81825L15.753 14.2477C15.753 14.286 15.7942 18.2453 18.477 20.421C18.6712 20.5785 18.7748 20.8222 18.7515 21.0712C18.729 21.3202 18.5835 21.5415 18.3638 21.6615L10.5075 25.947V27.0007H31.4993L31.5 25.9462L23.6445 21.66ZM13.9852 6.39C13.323 6.13275 12.636 5.99775 11.9962 5.99775C9.837 5.9985 7.16925 7.56225 6.74925 9.81225L6.74475 14.2418C6.74475 14.2808 6.78525 18.2392 9.46875 20.415C9.663 20.5725 9.7665 20.8162 9.744 21.0652C9.72075 21.3142 9.57525 21.5355 9.3555 21.6555L1.49925 25.941V26.9948H6.7485C7.1625 26.9948 7.49775 27.3308 7.49775 27.7448C7.49775 28.1588 7.1625 28.4948 6.7485 28.4948H1.49925C0.67275 28.4948 0 27.822 0 26.9948V25.4955C0 25.2217 0.15 24.969 0.39075 24.8378L7.73025 20.8342C5.2725 18.1755 5.24475 14.4142 5.24475 14.241L5.24925 9.7455C5.24925 9.70425 5.253 9.66225 5.25975 9.62175C5.7765 6.558 9.15975 4.5 11.9962 4.5C11.9992 4.5 12.0038 4.5 12.0075 4.5C12.8258 4.5 13.6965 4.67025 14.5267 4.992C14.9137 5.142 15.105 5.57625 14.9557 5.96175C14.805 6.348 14.3685 6.54 13.9852 6.39Z" fill="black"/>
</g>
<defs>
<clipPath id="clip0_451_841">
<rect width="33" height="33" fill="white"/>
</clipPath>
</defs>
</svg>
