<svg width="23" height="5" viewBox="0 0 23 5" fill="none" xmlns="http://www.w3.org/2000/svg">
<path fill-rule="evenodd" clip-rule="evenodd" d="M3.04167 4.91665C4.37636 4.91665 5.45833 3.83467 5.45833 2.49998C5.45833 1.16529 4.37636 0.083313 3.04167 0.083313C1.70698 0.083313 0.625 1.16529 0.625 2.49998C0.625 3.83467 1.70698 4.91665 3.04167 4.91665Z" fill="#fff"/>
<path fill-rule="evenodd" clip-rule="evenodd" d="M11.4999 4.91665C12.8346 4.91665 13.9166 3.83467 13.9166 2.49998C13.9166 1.16529 12.8346 0.083313 11.4999 0.083313C10.1652 0.083313 9.08325 1.16529 9.08325 2.49998C9.08325 3.83467 10.1652 4.91665 11.4999 4.91665Z" fill="#fff"/>
<path fill-rule="evenodd" clip-rule="evenodd" d="M19.9584 4.91665C21.2931 4.91665 22.3751 3.83467 22.3751 2.49998C22.3751 1.16529 21.2931 0.083313 19.9584 0.083313C18.6237 0.083313 17.5417 1.16529 17.5417 2.49998C17.5417 3.83467 18.6237 4.91665 19.9584 4.91665Z" fill="#fff"/>
</svg>
