<svg width="20" height="20" viewBox="0 0 20 20" fill="none" xmlns="http://www.w3.org/2000/svg">
<path d="M19.9059 0.939172L12.9324 19.3244C12.6485 20.0734 11.9527 20.2226 11.3872 19.6563C11.3872 19.6563 6.99395 15.2631 6.59364 14.8628C6.19333 14.4625 6.33234 13.6757 6.90297 13.1138L16.5949 3.57177C17.1655 3.00988 17.1124 2.94874 16.4763 3.43567L5.5652 11.7942C4.92979 12.2811 3.94648 12.2163 3.38022 11.6501L0.343667 8.61353C-0.222593 8.04727 -0.0733861 7.35218 0.675562 7.06759L19.0608 0.0941486C19.8098 -0.189709 20.1897 0.190224 19.9059 0.939172ZM4.19613 13.4952C3.913 13.212 3.68155 13.3081 3.68155 13.7084V17.0463C3.68155 17.4466 3.96249 17.6053 4.30531 17.3993L6.05285 16.3505C6.39639 16.1445 6.44516 15.7442 6.16203 15.4611L4.19613 13.4952Z" fill="white"/>
</svg>
